<svg xmlns="http://www.w3.org/2000/svg" viewBox="0 0 1190 1270" font-family="Helvetica, Arial, sans-serif">
<!-- Generated by tools/gen_pinout_svg.py; edit that script, not this file. -->
<rect x="0" y="0" width="1190" height="1270" fill="#f7f3eb"/>
<rect x="310" y="70" width="566" height="1080" rx="14" fill="#ffffff" stroke="#03234B" stroke-width="3"/>
<rect x="316" y="197" width="34" height="389.5" fill="#161616" rx="3"/>
<rect x="320.0" y="207.25" width="5.5" height="5.5" fill="#8f8f8f"/>
<rect x="340.5" y="207.25" width="5.5" height="5.5" fill="#8f8f8f"/>
<text x="354" y="213.0" font-size="7.5"><tspan fill="#9a9a94">NC</tspan><tspan fill="#c4c4be">/</tspan><tspan fill="#9a9a94">HSDM</tspan></text>
<rect x="320.0" y="227.75" width="5.5" height="5.5" fill="#8f8f8f"/>
<rect x="340.5" y="227.75" width="5.5" height="5.5" fill="#8f8f8f"/>
<text x="354" y="233.5" font-size="7.5"><tspan fill="#9a9a94">PC2</tspan><tspan fill="#c4c4be">/</tspan><tspan fill="#9a9a94">HSDP</tspan></text>
<rect x="320.0" y="248.25" width="5.5" height="5.5" fill="#c0392b" stroke="#000" stroke-width="0.5"/>
<rect x="340.5" y="248.25" width="5.5" height="5.5" fill="#c0392b" stroke="#000" stroke-width="0.5"/>
<text x="354" y="254.0" font-size="7.5"><tspan fill="#c0392b">VDDIO</tspan><tspan fill="#c4c4be">/</tspan><tspan fill="#c0392b">5V</tspan></text>
<rect x="320.0" y="268.75" width="5.5" height="5.5" fill="#8f8f8f"/>
<rect x="340.5" y="268.75" width="5.5" height="5.5" fill="#111111" stroke="#bbbbbb" stroke-width="0.5"/>
<text x="354" y="274.5" font-size="7.5"><tspan fill="#9a9a94">BOOT0</tspan><tspan fill="#c4c4be">/</tspan><tspan fill="#111111">GND</tspan></text>
<rect x="320.0" y="289.25" width="5.5" height="5.5" fill="#8f8f8f"/>
<rect x="340.5" y="289.25" width="5.5" height="5.5" fill="#c0392b" stroke="#000" stroke-width="0.5"/>
<text x="354" y="295.0" font-size="7.5"><tspan fill="#9a9a94">PH0</tspan><tspan fill="#c4c4be">/</tspan><tspan fill="#c0392b">VDDIO4</tspan></text>
<rect x="320.0" y="309.75" width="5.5" height="5.5" fill="#8f8f8f"/>
<rect x="340.5" y="309.75" width="5.5" height="5.5" fill="#8f8f8f"/>
<text x="354" y="315.5" font-size="7.5"><tspan fill="#9a9a94">PH1</tspan><tspan fill="#c4c4be">/</tspan><tspan fill="#9a9a94">IOREF</tspan></text>
<rect x="320.0" y="330.25" width="5.5" height="5.5" fill="#8f8f8f"/>
<rect x="340.5" y="330.25" width="5.5" height="5.5" fill="#8f8f8f"/>
<text x="354" y="336.0" font-size="7.5"><tspan fill="#9a9a94">PC4</tspan><tspan fill="#c4c4be">/</tspan><tspan fill="#9a9a94">NRST</tspan></text>
<rect x="320.0" y="350.75" width="5.5" height="5.5" fill="#8f8f8f"/>
<rect x="340.5" y="350.75" width="5.5" height="5.5" fill="#c0392b" stroke="#000" stroke-width="0.5"/>
<text x="354" y="356.5" font-size="7.5"><tspan fill="#9a9a94">PC5</tspan><tspan fill="#c4c4be">/</tspan><tspan fill="#c0392b">3V3</tspan></text>
<rect x="320.0" y="371.25" width="5.5" height="5.5" fill="#8f8f8f"/>
<rect x="340.5" y="371.25" width="5.5" height="5.5" fill="#c0392b" stroke="#000" stroke-width="0.5"/>
<text x="354" y="377.0" font-size="7.5"><tspan fill="#9a9a94">PC0</tspan><tspan fill="#c4c4be">/</tspan><tspan fill="#c0392b">5V</tspan></text>
<rect x="320.0" y="391.75" width="5.5" height="5.5" fill="#111111" stroke="#bbbbbb" stroke-width="0.5"/>
<rect x="340.5" y="391.75" width="5.5" height="5.5" fill="#111111" stroke="#bbbbbb" stroke-width="0.5"/>
<text x="354" y="397.5" font-size="7.5"><tspan fill="#111111">GND</tspan><tspan fill="#c4c4be">/</tspan><tspan fill="#111111">GND</tspan></text>
<rect x="320.0" y="412.25" width="5.5" height="5.5" fill="#8f8f8f"/>
<rect x="340.5" y="412.25" width="5.5" height="5.5" fill="#111111" stroke="#bbbbbb" stroke-width="0.5"/>
<text x="354" y="418.0" font-size="7.5"><tspan fill="#9a9a94">PE4</tspan><tspan fill="#c4c4be">/</tspan><tspan fill="#111111">GND</tspan></text>
<rect x="320.0" y="432.75" width="5.5" height="5.5" fill="#8f8f8f"/>
<rect x="340.5" y="432.75" width="5.5" height="5.5" fill="#c0392b" stroke="#000" stroke-width="0.5"/>
<text x="354" y="438.5" font-size="7.5"><tspan fill="#9a9a94">PC13</tspan><tspan fill="#c4c4be">/</tspan><tspan fill="#c0392b">VIN</tspan></text>
<rect x="320.0" y="453.25" width="5.5" height="5.5" fill="#8f8f8f"/>
<rect x="340.5" y="453.25" width="5.5" height="5.5" fill="#8f8f8f"/>
<text x="354" y="459.0" font-size="7.5"><tspan fill="#9a9a94">PC3</tspan><tspan fill="#c4c4be">/</tspan><tspan fill="#9a9a94">PH4</tspan></text>
<rect x="320.0" y="473.75" width="5.5" height="5.5" fill="#8f8f8f"/>
<rect x="340.5" y="473.75" width="5.5" height="5.5" fill="#8f8f8f"/>
<text x="354" y="479.5" font-size="7.5"><tspan fill="#9a9a94">PC15</tspan><tspan fill="#c4c4be">/</tspan><tspan fill="#9a9a94">PF5</tspan></text>
<rect x="320.0" y="494.25" width="5.5" height="5.5" fill="#8f8f8f"/>
<rect x="340.5" y="494.25" width="5.5" height="5.5" fill="#8f8f8f"/>
<text x="354" y="500.0" font-size="7.5"><tspan fill="#9a9a94">PC14</tspan><tspan fill="#c4c4be">/</tspan><tspan fill="#9a9a94">PC10</tspan></text>
<rect x="320.0" y="514.75" width="5.5" height="5.5" fill="#c0392b" stroke="#000" stroke-width="0.5"/>
<rect x="340.5" y="514.75" width="5.5" height="5.5" fill="#8f8f8f"/>
<text x="354" y="520.5" font-size="7.5"><tspan fill="#c0392b">VDDIO5</tspan><tspan fill="#c4c4be">/</tspan><tspan fill="#9a9a94">PF6</tspan></text>
<rect x="320.0" y="535.25" width="5.5" height="5.5" fill="#c0392b" stroke="#000" stroke-width="0.5"/>
<rect x="340.5" y="535.25" width="5.5" height="5.5" fill="#8f8f8f"/>
<text x="354" y="541.0" font-size="7.5"><tspan fill="#c0392b">VBAT</tspan><tspan fill="#c4c4be">/</tspan><tspan fill="#9a9a94">PA2</tspan></text>
<rect x="320.0" y="555.75" width="5.5" height="5.5" fill="#8f8f8f"/>
<rect x="340.5" y="555.75" width="5.5" height="5.5" fill="#8f8f8f"/>
<text x="354" y="561.5" font-size="7.5"><tspan fill="#9a9a94">BOOT1</tspan><tspan fill="#c4c4be">/</tspan><tspan fill="#9a9a94">PC12</tspan></text>
<rect x="320.0" y="576.25" width="5.5" height="5.5" fill="#8f8f8f"/>
<rect x="340.5" y="576.25" width="5.5" height="5.5" fill="#8f8f8f"/>
<text x="354" y="582.0" font-size="7.5"><tspan fill="#9a9a94">PC8</tspan><tspan fill="#c4c4be">/</tspan><tspan fill="#9a9a94">PH2</tspan></text>
<text x="333" y="191" font-size="11" fill="#03234B" text-anchor="middle">CN3</text>
<circle cx="322.75" cy="599.5" r="2.6" fill="none" stroke="#9a9a9a" stroke-width="1"/>
<circle cx="343.25" cy="599.5" r="2.6" fill="none" stroke="#9a9a9a" stroke-width="1"/>
<circle cx="322.75" cy="620.0" r="2.6" fill="none" stroke="#9a9a9a" stroke-width="1"/>
<circle cx="343.25" cy="620.0" r="2.6" fill="none" stroke="#9a9a9a" stroke-width="1"/>
<circle cx="322.75" cy="640.5" r="2.6" fill="none" stroke="#9a9a9a" stroke-width="1"/>
<circle cx="343.25" cy="640.5" r="2.6" fill="none" stroke="#9a9a9a" stroke-width="1"/>
<circle cx="322.75" cy="661.0" r="2.6" fill="none" stroke="#9a9a9a" stroke-width="1"/>
<circle cx="343.25" cy="661.0" r="2.6" fill="none" stroke="#9a9a9a" stroke-width="1"/>
<circle cx="322.75" cy="681.5" r="2.6" fill="none" stroke="#9a9a9a" stroke-width="1"/>
<circle cx="343.25" cy="681.5" r="2.6" fill="none" stroke="#9a9a9a" stroke-width="1"/>
<circle cx="322.75" cy="702.0" r="2.6" fill="none" stroke="#9a9a9a" stroke-width="1"/>
<circle cx="343.25" cy="702.0" r="2.6" fill="none" stroke="#9a9a9a" stroke-width="1"/>
<circle cx="322.75" cy="722.5" r="2.6" fill="none" stroke="#9a9a9a" stroke-width="1"/>
<circle cx="343.25" cy="722.5" r="2.6" fill="none" stroke="#9a9a9a" stroke-width="1"/>
<circle cx="322.75" cy="743.0" r="2.6" fill="none" stroke="#9a9a9a" stroke-width="1"/>
<circle cx="343.25" cy="743.0" r="2.6" fill="none" stroke="#9a9a9a" stroke-width="1"/>
<circle cx="322.75" cy="763.5" r="2.6" fill="none" stroke="#9a9a9a" stroke-width="1"/>
<circle cx="343.25" cy="763.5" r="2.6" fill="none" stroke="#9a9a9a" stroke-width="1"/>
<circle cx="322.75" cy="784.0" r="2.6" fill="none" stroke="#9a9a9a" stroke-width="1"/>
<circle cx="343.25" cy="784.0" r="2.6" fill="none" stroke="#9a9a9a" stroke-width="1"/>
<circle cx="322.75" cy="804.5" r="2.6" fill="none" stroke="#9a9a9a" stroke-width="1"/>
<circle cx="343.25" cy="804.5" r="2.6" fill="none" stroke="#9a9a9a" stroke-width="1"/>
<circle cx="322.75" cy="825.0" r="2.6" fill="none" stroke="#9a9a9a" stroke-width="1"/>
<circle cx="343.25" cy="825.0" r="2.6" fill="none" stroke="#9a9a9a" stroke-width="1"/>
<circle cx="322.75" cy="845.5" r="2.6" fill="none" stroke="#9a9a9a" stroke-width="1"/>
<circle cx="343.25" cy="845.5" r="2.6" fill="none" stroke="#9a9a9a" stroke-width="1"/>
<circle cx="322.75" cy="866.0" r="2.6" fill="none" stroke="#9a9a9a" stroke-width="1"/>
<circle cx="343.25" cy="866.0" r="2.6" fill="none" stroke="#9a9a9a" stroke-width="1"/>
<circle cx="322.75" cy="886.5" r="2.6" fill="none" stroke="#9a9a9a" stroke-width="1"/>
<circle cx="343.25" cy="886.5" r="2.6" fill="none" stroke="#9a9a9a" stroke-width="1"/>
<circle cx="322.75" cy="907.0" r="2.6" fill="none" stroke="#9a9a9a" stroke-width="1"/>
<circle cx="343.25" cy="907.0" r="2.6" fill="none" stroke="#9a9a9a" stroke-width="1"/>
<circle cx="322.75" cy="927.5" r="2.6" fill="none" stroke="#9a9a9a" stroke-width="1"/>
<circle cx="343.25" cy="927.5" r="2.6" fill="none" stroke="#9a9a9a" stroke-width="1"/>
<text x="333" y="948.0" font-size="8.5" fill="#555555" text-anchor="middle">CN2</text>
<rect x="826" y="197" width="34" height="389.5" fill="#161616" rx="3"/>
<rect x="830.0" y="207.25" width="5.5" height="5.5" fill="#8f8f8f"/>
<rect x="850.5" y="207.25" width="5.5" height="5.5" fill="#8f8f8f"/>
<text x="822" y="213.0" font-size="7.5" text-anchor="end"><tspan fill="#9a9a94">PE12</tspan><tspan fill="#c4c4be">/</tspan><tspan fill="#9a9a94">PE6</tspan></text>
<rect x="830.0" y="227.75" width="5.5" height="5.5" fill="#8f8f8f"/>
<rect x="850.5" y="227.75" width="5.5" height="5.5" fill="#8f8f8f"/>
<text x="822" y="233.5" font-size="7.5" text-anchor="end"><tspan fill="#9a9a94">PH9</tspan><tspan fill="#c4c4be">/</tspan><tspan fill="#9a9a94">PE5</tspan></text>
<rect x="830.0" y="248.25" width="5.5" height="5.5" fill="#8f8f8f"/>
<rect x="850.5" y="248.25" width="5.5" height="5.5" fill="#8f8f8f"/>
<text x="822" y="254.0" font-size="7.5" text-anchor="end"><tspan fill="#9a9a94">PC1</tspan><tspan fill="#c4c4be">/</tspan><tspan fill="#9a9a94">PD6</tspan></text>
<rect x="830.0" y="268.75" width="5.5" height="5.5" fill="#8f8f8f"/>
<rect x="850.5" y="268.75" width="5.5" height="5.5" fill="#c0392b" stroke="#000" stroke-width="0.5"/>
<text x="822" y="274.5" font-size="7.5" text-anchor="end"><tspan fill="#9a9a94">VREFP</tspan><tspan fill="#c4c4be">/</tspan><tspan fill="#c0392b">5V_STLK</tspan></text>
<rect x="830.0" y="289.25" width="5.5" height="5.5" fill="#111111" stroke="#bbbbbb" stroke-width="0.5"/>
<rect x="850.5" y="289.25" width="5.5" height="5.5" fill="#8f8f8f"/>
<text x="822" y="295.0" font-size="7.5" text-anchor="end"><tspan fill="#111111">GND</tspan><tspan fill="#c4c4be">/</tspan><tspan fill="#9a9a94">PB2</tspan></text>
<rect x="830.0" y="309.75" width="5.5" height="5.5" fill="#8f8f8f"/>
<rect x="850.5" y="309.75" width="5.5" height="5.5" fill="#8f8f8f"/>
<text x="822" y="315.5" font-size="7.5" text-anchor="end"><tspan fill="#9a9a94">PE15</tspan><tspan fill="#c4c4be">/</tspan><tspan fill="#9a9a94">PB3</tspan></text>
<rect x="830.0" y="330.25" width="5.5" height="5.5" fill="#8f8f8f"/>
<rect x="850.5" y="330.25" width="5.5" height="5.5" fill="#8f8f8f"/>
<text x="822" y="336.0" font-size="7.5" text-anchor="end"><tspan fill="#9a9a94">PG1</tspan><tspan fill="#c4c4be">/</tspan><tspan fill="#9a9a94">PB8</tspan></text>
<rect x="830.0" y="350.75" width="5.5" height="5.5" fill="#8f8f8f"/>
<rect x="850.5" y="350.75" width="5.5" height="5.5" fill="#8f8f8f"/>
<text x="822" y="356.5" font-size="7.5" text-anchor="end"><tspan fill="#9a9a94">PG2</tspan><tspan fill="#c4c4be">/</tspan><tspan fill="#9a9a94">PB9</tspan></text>
<rect x="830.0" y="371.25" width="5.5" height="5.5" fill="#8f8f8f"/>
<rect x="850.5" y="371.25" width="5.5" height="5.5" fill="#8f8f8f"/>
<text x="822" y="377.0" font-size="7.5" text-anchor="end"><tspan fill="#9a9a94">PA3</tspan><tspan fill="#c4c4be">/</tspan><tspan fill="#9a9a94">PB14</tspan></text>
<rect x="830.0" y="391.75" width="5.5" height="5.5" fill="#8f8f8f"/>
<rect x="850.5" y="391.75" width="5.5" height="5.5" fill="#111111" stroke="#bbbbbb" stroke-width="0.5"/>
<text x="822" y="397.5" font-size="7.5" text-anchor="end"><tspan fill="#9a9a94">PD7</tspan><tspan fill="#c4c4be">/</tspan><tspan fill="#111111">GND</tspan></text>
<rect x="830.0" y="412.25" width="5.5" height="5.5" fill="#8f8f8f"/>
<rect x="850.5" y="412.25" width="5.5" height="5.5" fill="#8f8f8f"/>
<text x="822" y="418.0" font-size="7.5" text-anchor="end"><tspan fill="#9a9a94">PD12</tspan><tspan fill="#c4c4be">/</tspan><tspan fill="#9a9a94">PE7</tspan></text>
<rect x="830.0" y="432.75" width="5.5" height="5.5" fill="#8f8f8f"/>
<rect x="850.5" y="432.75" width="5.5" height="5.5" fill="#8f8f8f"/>
<text x="822" y="438.5" font-size="7.5" text-anchor="end"><tspan fill="#9a9a94">PE11</tspan><tspan fill="#c4c4be">/</tspan><tspan fill="#9a9a94">PE1</tspan></text>
<rect x="830.0" y="453.25" width="5.5" height="5.5" fill="#8f8f8f"/>
<rect x="850.5" y="453.25" width="5.5" height="5.5" fill="#8f8f8f"/>
<text x="822" y="459.0" font-size="7.5" text-anchor="end"><tspan fill="#9a9a94">PD5</tspan><tspan fill="#c4c4be">/</tspan><tspan fill="#9a9a94">PE14</tspan></text>
<rect x="830.0" y="473.75" width="5.5" height="5.5" fill="#8f8f8f"/>
<rect x="850.5" y="473.75" width="5.5" height="5.5" fill="#8f8f8f"/>
<text x="822" y="479.5" font-size="7.5" text-anchor="end"><tspan fill="#9a9a94">PE10</tspan><tspan fill="#c4c4be">/</tspan><tspan fill="#9a9a94">PE13</tspan></text>
<rect x="830.0" y="494.25" width="5.5" height="5.5" fill="#8f8f8f"/>
<rect x="850.5" y="494.25" width="5.5" height="5.5" fill="#8f8f8f"/>
<text x="822" y="500.0" font-size="7.5" text-anchor="end"><tspan fill="#9a9a94">PE0</tspan><tspan fill="#c4c4be">/</tspan><tspan fill="#9a9a94">PE2</tspan></text>
<rect x="830.0" y="514.75" width="5.5" height="5.5" fill="#8f8f8f"/>
<rect x="850.5" y="514.75" width="5.5" height="5.5" fill="#111111" stroke="#bbbbbb" stroke-width="0.5"/>
<text x="822" y="520.5" font-size="7.5" text-anchor="end"><tspan fill="#9a9a94">PE9</tspan><tspan fill="#c4c4be">/</tspan><tspan fill="#111111">AGND</tspan></text>
<rect x="830.0" y="535.25" width="5.5" height="5.5" fill="#8f8f8f"/>
<rect x="850.5" y="535.25" width="5.5" height="5.5" fill="#8f8f8f"/>
<text x="822" y="541.0" font-size="7.5" text-anchor="end"><tspan fill="#9a9a94">PD0</tspan><tspan fill="#c4c4be">/</tspan><tspan fill="#9a9a94">PD10</tspan></text>
<rect x="830.0" y="555.75" width="5.5" height="5.5" fill="#8f8f8f"/>
<rect x="850.5" y="555.75" width="5.5" height="5.5" fill="#8f8f8f"/>
<text x="822" y="561.5" font-size="7.5" text-anchor="end"><tspan fill="#9a9a94">PD8</tspan><tspan fill="#c4c4be">/</tspan><tspan fill="#9a9a94">PD11</tspan></text>
<rect x="830.0" y="576.25" width="5.5" height="5.5" fill="#8f8f8f"/>
<rect x="850.5" y="576.25" width="5.5" height="5.5" fill="#8f8f8f"/>
<text x="822" y="582.0" font-size="7.5" text-anchor="end"><tspan fill="#9a9a94">PD9</tspan><tspan fill="#c4c4be">/</tspan><tspan fill="#9a9a94">PA1</tspan></text>
<text x="843" y="191" font-size="11" fill="#03234B" text-anchor="middle">CN15</text>
<circle cx="832.75" cy="599.5" r="2.6" fill="none" stroke="#9a9a9a" stroke-width="1"/>
<circle cx="853.25" cy="599.5" r="2.6" fill="none" stroke="#9a9a9a" stroke-width="1"/>
<circle cx="832.75" cy="620.0" r="2.6" fill="none" stroke="#9a9a9a" stroke-width="1"/>
<circle cx="853.25" cy="620.0" r="2.6" fill="none" stroke="#9a9a9a" stroke-width="1"/>
<circle cx="832.75" cy="640.5" r="2.6" fill="none" stroke="#9a9a9a" stroke-width="1"/>
<circle cx="853.25" cy="640.5" r="2.6" fill="none" stroke="#9a9a9a" stroke-width="1"/>
<circle cx="832.75" cy="661.0" r="2.6" fill="none" stroke="#9a9a9a" stroke-width="1"/>
<circle cx="853.25" cy="661.0" r="2.6" fill="none" stroke="#9a9a9a" stroke-width="1"/>
<circle cx="832.75" cy="681.5" r="2.6" fill="none" stroke="#9a9a9a" stroke-width="1"/>
<circle cx="853.25" cy="681.5" r="2.6" fill="none" stroke="#9a9a9a" stroke-width="1"/>
<circle cx="832.75" cy="702.0" r="2.6" fill="none" stroke="#9a9a9a" stroke-width="1"/>
<circle cx="853.25" cy="702.0" r="2.6" fill="none" stroke="#9a9a9a" stroke-width="1"/>
<circle cx="832.75" cy="722.5" r="2.6" fill="none" stroke="#9a9a9a" stroke-width="1"/>
<circle cx="853.25" cy="722.5" r="2.6" fill="none" stroke="#9a9a9a" stroke-width="1"/>
<circle cx="832.75" cy="743.0" r="2.6" fill="none" stroke="#9a9a9a" stroke-width="1"/>
<circle cx="853.25" cy="743.0" r="2.6" fill="none" stroke="#9a9a9a" stroke-width="1"/>
<circle cx="832.75" cy="763.5" r="2.6" fill="none" stroke="#9a9a9a" stroke-width="1"/>
<circle cx="853.25" cy="763.5" r="2.6" fill="none" stroke="#9a9a9a" stroke-width="1"/>
<circle cx="832.75" cy="784.0" r="2.6" fill="none" stroke="#9a9a9a" stroke-width="1"/>
<circle cx="853.25" cy="784.0" r="2.6" fill="none" stroke="#9a9a9a" stroke-width="1"/>
<circle cx="832.75" cy="804.5" r="2.6" fill="none" stroke="#9a9a9a" stroke-width="1"/>
<circle cx="853.25" cy="804.5" r="2.6" fill="none" stroke="#9a9a9a" stroke-width="1"/>
<circle cx="832.75" cy="825.0" r="2.6" fill="none" stroke="#9a9a9a" stroke-width="1"/>
<circle cx="853.25" cy="825.0" r="2.6" fill="none" stroke="#9a9a9a" stroke-width="1"/>
<circle cx="832.75" cy="845.5" r="2.6" fill="none" stroke="#9a9a9a" stroke-width="1"/>
<circle cx="853.25" cy="845.5" r="2.6" fill="none" stroke="#9a9a9a" stroke-width="1"/>
<circle cx="832.75" cy="866.0" r="2.6" fill="none" stroke="#9a9a9a" stroke-width="1"/>
<circle cx="853.25" cy="866.0" r="2.6" fill="none" stroke="#9a9a9a" stroke-width="1"/>
<circle cx="832.75" cy="886.5" r="2.6" fill="none" stroke="#9a9a9a" stroke-width="1"/>
<circle cx="853.25" cy="886.5" r="2.6" fill="none" stroke="#9a9a9a" stroke-width="1"/>
<circle cx="832.75" cy="907.0" r="2.6" fill="none" stroke="#9a9a9a" stroke-width="1"/>
<circle cx="853.25" cy="907.0" r="2.6" fill="none" stroke="#9a9a9a" stroke-width="1"/>
<circle cx="832.75" cy="927.5" r="2.6" fill="none" stroke="#9a9a9a" stroke-width="1"/>
<circle cx="853.25" cy="927.5" r="2.6" fill="none" stroke="#9a9a9a" stroke-width="1"/>
<text x="843" y="948.0" font-size="8.5" fill="#555555" text-anchor="middle">CN16</text>
<text x="593" y="530" font-size="15" fill="#03234B" text-anchor="middle" font-weight="bold">NUCLEO-N657X0-Q</text>
<text x="593" y="548" font-size="11" fill="#03234B" text-anchor="middle">MB1940</text>
<rect x="716" y="197.0" width="28" height="205.0" rx="4" fill="#181818"/>
<text x="730" y="191.0" font-size="11" fill="#03234B" text-anchor="middle">CN14</text>
<rect x="724" y="204.0" width="12" height="12" fill="#c9c9c9" stroke="#000" stroke-width="0.6"/>
<text x="710" y="214.0" font-size="11" fill="#03234B" text-anchor="end">D15</text>
<line x1="876" y1="210.0" x2="886" y2="210.0" stroke="#b5b5b0" stroke-width="1"/>
<text x="890" y="214.0" font-size="12.5" fill="#222222" text-anchor="start">PH9  I2C1_SCL</text>
<rect x="724" y="224.5" width="12" height="12" fill="#c9c9c9" stroke="#000" stroke-width="0.6"/>
<text x="710" y="234.5" font-size="11" fill="#03234B" text-anchor="end">D14</text>
<line x1="876" y1="230.5" x2="886" y2="230.5" stroke="#b5b5b0" stroke-width="1"/>
<text x="890" y="234.5" font-size="12.5" fill="#222222" text-anchor="start">PC1  I2C1_SDA</text>
<rect x="724" y="245.0" width="12" height="12" fill="#c9c9c9" stroke="#000" stroke-width="0.6"/>
<text x="710" y="255.0" font-size="11" fill="#03234B" text-anchor="end">AREF</text>
<line x1="876" y1="251.0" x2="886" y2="251.0" stroke="#b5b5b0" stroke-width="1"/>
<text x="890" y="255.0" font-size="12.5" fill="#222222" text-anchor="start">AVDD</text>
<rect x="724" y="265.5" width="12" height="12" fill="#111111" stroke="#bbbbbb" stroke-width="0.6"/>
<text x="710" y="275.5" font-size="11" fill="#03234B" text-anchor="end">GND</text>
<line x1="876" y1="271.5" x2="886" y2="271.5" stroke="#b5b5b0" stroke-width="1"/>
<text x="890" y="275.5" font-size="12.5" fill="#111111" text-anchor="start">Ground</text>
<rect x="724" y="286.0" width="12" height="12" fill="#c9c9c9" stroke="#000" stroke-width="0.6"/>
<text x="710" y="296.0" font-size="11" fill="#03234B" text-anchor="end">D13</text>
<line x1="876" y1="292.0" x2="886" y2="292.0" stroke="#b5b5b0" stroke-width="1"/>
<text x="890" y="296.0" font-size="12.5" fill="#222222" text-anchor="start">PE15  SPI5_SCK</text>
<rect x="724" y="306.5" width="12" height="12" fill="#c9c9c9" stroke="#000" stroke-width="0.6"/>
<text x="710" y="316.5" font-size="11" fill="#03234B" text-anchor="end">D12</text>
<line x1="876" y1="312.5" x2="886" y2="312.5" stroke="#b5b5b0" stroke-width="1"/>
<text x="890" y="316.5" font-size="12.5" fill="#222222" text-anchor="start">PG1  SPI5_MISO</text>
<rect x="724" y="327.0" width="12" height="12" fill="#c9c9c9" stroke="#000" stroke-width="0.6"/>
<text x="710" y="337.0" font-size="11" fill="#03234B" text-anchor="end">D11</text>
<line x1="876" y1="333.0" x2="886" y2="333.0" stroke="#b5b5b0" stroke-width="1"/>
<text x="890" y="337.0" font-size="12.5" fill="#222222" text-anchor="start">PG2  SPI5_MOSI/T14</text>
<rect x="724" y="347.5" width="12" height="12" fill="#c9c9c9" stroke="#000" stroke-width="0.6"/>
<text x="710" y="357.5" font-size="11" fill="#03234B" text-anchor="end">D10</text>
<line x1="876" y1="353.5" x2="886" y2="353.5" stroke="#b5b5b0" stroke-width="1"/>
<text x="890" y="357.5" font-size="12.5" fill="#222222" text-anchor="start">PA3  SPI5_CS/T16</text>
<rect x="724" y="368.0" width="12" height="12" fill="#c9c9c9" stroke="#000" stroke-width="0.6"/>
<text x="710" y="378.0" font-size="11" fill="#03234B" text-anchor="end">D9</text>
<line x1="876" y1="374.0" x2="886" y2="374.0" stroke="#b5b5b0" stroke-width="1"/>
<text x="890" y="378.0" font-size="12.5" fill="#222222" text-anchor="start">PD7  TIM1_CH2</text>
<rect x="724" y="388.5" width="12" height="12" fill="#c9c9c9" stroke="#000" stroke-width="0.6"/>
<text x="710" y="398.5" font-size="11" fill="#03234B" text-anchor="end">D8</text>
<line x1="876" y1="394.5" x2="886" y2="394.5" stroke="#b5b5b0" stroke-width="1"/>
<text x="890" y="398.5" font-size="12.5" fill="#222222" text-anchor="start">PD12  --</text>
<rect x="716" y="422.5" width="28" height="164.0" rx="4" fill="#181818"/>
<text x="730" y="606.5" font-size="11" fill="#03234B" text-anchor="middle">CN13</text>
<rect x="724" y="429.5" width="12" height="12" fill="#c9c9c9" stroke="#000" stroke-width="0.6"/>
<text x="710" y="439.5" font-size="11" fill="#03234B" text-anchor="end">D7</text>
<line x1="876" y1="435.5" x2="886" y2="435.5" stroke="#b5b5b0" stroke-width="1"/>
<text x="890" y="439.5" font-size="12.5" fill="#222222" text-anchor="start">PE11  --</text>
<rect x="724" y="450.0" width="12" height="12" fill="#c9c9c9" stroke="#000" stroke-width="0.6"/>
<text x="710" y="460.0" font-size="11" fill="#03234B" text-anchor="end">D6</text>
<line x1="876" y1="456.0" x2="886" y2="456.0" stroke="#b5b5b0" stroke-width="1"/>
<text x="890" y="460.0" font-size="12.5" fill="#222222" text-anchor="start">PD5  TIM1_CH4N</text>
<rect x="724" y="470.5" width="12" height="12" fill="#c9c9c9" stroke="#000" stroke-width="0.6"/>
<text x="710" y="480.5" font-size="11" fill="#03234B" text-anchor="end">D5</text>
<line x1="876" y1="476.5" x2="886" y2="476.5" stroke="#b5b5b0" stroke-width="1"/>
<text x="890" y="480.5" font-size="12.5" fill="#222222" text-anchor="start">PE10  TIM1_CH2N</text>
<rect x="724" y="491.0" width="12" height="12" fill="#c9c9c9" stroke="#000" stroke-width="0.6"/>
<text x="710" y="501.0" font-size="11" fill="#03234B" text-anchor="end">D4</text>
<line x1="876" y1="497.0" x2="886" y2="497.0" stroke="#b5b5b0" stroke-width="1"/>
<text x="890" y="501.0" font-size="12.5" fill="#222222" text-anchor="start">PE0  --</text>
<rect x="724" y="511.5" width="12" height="12" fill="#c9c9c9" stroke="#000" stroke-width="0.6"/>
<text x="710" y="521.5" font-size="11" fill="#03234B" text-anchor="end">D3</text>
<line x1="876" y1="517.5" x2="886" y2="517.5" stroke="#b5b5b0" stroke-width="1"/>
<text x="890" y="521.5" font-size="12.5" fill="#222222" text-anchor="start">PE9  TIM1_CH1</text>
<rect x="724" y="532.0" width="12" height="12" fill="#c9c9c9" stroke="#000" stroke-width="0.6"/>
<text x="710" y="542.0" font-size="11" fill="#03234B" text-anchor="end">D2</text>
<line x1="876" y1="538.0" x2="886" y2="538.0" stroke="#b5b5b0" stroke-width="1"/>
<text x="890" y="542.0" font-size="12.5" fill="#222222" text-anchor="start">PD0  GPIO</text>
<rect x="724" y="552.5" width="12" height="12" fill="#c9c9c9" stroke="#000" stroke-width="0.6"/>
<text x="710" y="562.5" font-size="11" fill="#03234B" text-anchor="end">D1</text>
<line x1="876" y1="558.5" x2="886" y2="558.5" stroke="#b5b5b0" stroke-width="1"/>
<text x="890" y="562.5" font-size="12.5" fill="#222222" text-anchor="start">PD8  USART3_TX</text>
<rect x="724" y="573.0" width="12" height="12" fill="#c9c9c9" stroke="#000" stroke-width="0.6"/>
<text x="710" y="583.0" font-size="11" fill="#03234B" text-anchor="end">D0</text>
<line x1="876" y1="579.0" x2="886" y2="579.0" stroke="#b5b5b0" stroke-width="1"/>
<text x="890" y="583.0" font-size="12.5" fill="#222222" text-anchor="start">PD9  USART3_RX</text>
<rect x="435" y="279.0" width="28" height="164.0" rx="4" fill="#181818"/>
<text x="449" y="273.0" font-size="11" fill="#03234B" text-anchor="middle">CN5</text>
<rect x="443" y="286.0" width="12" height="12" fill="#c9c9c9" stroke="#000" stroke-width="0.6"/>
<text x="469" y="296.0" font-size="11" fill="#03234B">NC</text>
<line x1="310" y1="292.0" x2="300" y2="292.0" stroke="#b5b5b0" stroke-width="1"/>
<text x="296" y="296.0" font-size="12.5" fill="#222222" text-anchor="end">5V_IN test</text>
<rect x="443" y="306.5" width="12" height="12" fill="#c9c9c9" stroke="#000" stroke-width="0.6"/>
<text x="469" y="316.5" font-size="11" fill="#03234B">IOREF</text>
<line x1="310" y1="312.5" x2="300" y2="312.5" stroke="#b5b5b0" stroke-width="1"/>
<text x="296" y="316.5" font-size="12.5" fill="#222222" text-anchor="end">3V3 ref</text>
<rect x="443" y="327.0" width="12" height="12" fill="#c9c9c9" stroke="#000" stroke-width="0.6"/>
<text x="469" y="337.0" font-size="11" fill="#03234B">RST</text>
<line x1="310" y1="333.0" x2="300" y2="333.0" stroke="#b5b5b0" stroke-width="1"/>
<text x="296" y="337.0" font-size="12.5" fill="#222222" text-anchor="end">NRST  Reset</text>
<rect x="443" y="347.5" width="12" height="12" fill="#c0392b" stroke="#000" stroke-width="0.6"/>
<text x="469" y="357.5" font-size="11" fill="#03234B">3V3</text>
<line x1="310" y1="353.5" x2="300" y2="353.5" stroke="#b5b5b0" stroke-width="1"/>
<text x="296" y="357.5" font-size="12.5" fill="#c0392b" text-anchor="end">3.3V out</text>
<rect x="443" y="368.0" width="12" height="12" fill="#c0392b" stroke="#000" stroke-width="0.6"/>
<text x="469" y="378.0" font-size="11" fill="#03234B">5V</text>
<line x1="310" y1="374.0" x2="300" y2="374.0" stroke="#b5b5b0" stroke-width="1"/>
<text x="296" y="378.0" font-size="12.5" fill="#c0392b" text-anchor="end">5V out</text>
<rect x="443" y="388.5" width="12" height="12" fill="#111111" stroke="#bbbbbb" stroke-width="0.6"/>
<text x="469" y="398.5" font-size="11" fill="#03234B">GND</text>
<line x1="310" y1="394.5" x2="300" y2="394.5" stroke="#b5b5b0" stroke-width="1"/>
<text x="296" y="398.5" font-size="12.5" fill="#111111" text-anchor="end">Ground</text>
<rect x="443" y="409.0" width="12" height="12" fill="#111111" stroke="#bbbbbb" stroke-width="0.6"/>
<text x="469" y="419.0" font-size="11" fill="#03234B">GND</text>
<line x1="310" y1="415.0" x2="300" y2="415.0" stroke="#b5b5b0" stroke-width="1"/>
<text x="296" y="419.0" font-size="12.5" fill="#111111" text-anchor="end">Ground</text>
<rect x="443" y="429.5" width="12" height="12" fill="#c0392b" stroke="#000" stroke-width="0.6"/>
<text x="469" y="439.5" font-size="11" fill="#03234B">VIN</text>
<line x1="310" y1="435.5" x2="300" y2="435.5" stroke="#b5b5b0" stroke-width="1"/>
<text x="296" y="439.5" font-size="12.5" fill="#c0392b" text-anchor="end">Power in</text>
<rect x="435" y="463.5" width="28" height="123.0" rx="4" fill="#181818"/>
<text x="449" y="457.5" font-size="11" fill="#03234B" text-anchor="middle">CN4</text>
<rect x="443" y="470.5" width="12" height="12" fill="#c9c9c9" stroke="#000" stroke-width="0.6"/>
<text x="469" y="480.5" font-size="11" fill="#03234B">A0</text>
<line x1="310" y1="476.5" x2="300" y2="476.5" stroke="#b5b5b0" stroke-width="1"/>
<text x="296" y="480.5" font-size="12.5" fill="#222222" text-anchor="end">PA8  ADC12_INP5</text>
<rect x="443" y="491.0" width="12" height="12" fill="#c9c9c9" stroke="#000" stroke-width="0.6"/>
<text x="469" y="501.0" font-size="11" fill="#03234B">A1</text>
<line x1="310" y1="497.0" x2="300" y2="497.0" stroke="#b5b5b0" stroke-width="1"/>
<text x="296" y="501.0" font-size="12.5" fill="#222222" text-anchor="end">PA9  ADC12_INP10</text>
<rect x="443" y="511.5" width="12" height="12" fill="#c9c9c9" stroke="#000" stroke-width="0.6"/>
<text x="469" y="521.5" font-size="11" fill="#03234B">A2</text>
<line x1="310" y1="517.5" x2="300" y2="517.5" stroke="#b5b5b0" stroke-width="1"/>
<text x="296" y="521.5" font-size="12.5" fill="#222222" text-anchor="end">PA10  ADC12_INP11</text>
<rect x="443" y="532.0" width="12" height="12" fill="#c9c9c9" stroke="#000" stroke-width="0.6"/>
<text x="469" y="542.0" font-size="11" fill="#03234B">A3</text>
<line x1="310" y1="538.0" x2="300" y2="538.0" stroke="#b5b5b0" stroke-width="1"/>
<text x="296" y="542.0" font-size="12.5" fill="#222222" text-anchor="end">PA12  ADC12_INP13</text>
<rect x="443" y="552.5" width="12" height="12" fill="#c9c9c9" stroke="#000" stroke-width="0.6"/>
<text x="469" y="562.5" font-size="11" fill="#03234B">A4</text>
<line x1="310" y1="558.5" x2="300" y2="558.5" stroke="#b5b5b0" stroke-width="1"/>
<text x="296" y="562.5" font-size="12.5" fill="#222222" text-anchor="end">PF3  ADC1_INP16</text>
<rect x="443" y="573.0" width="12" height="12" fill="#c9c9c9" stroke="#000" stroke-width="0.6"/>
<text x="469" y="583.0" font-size="11" fill="#03234B">A5</text>
<line x1="310" y1="579.0" x2="300" y2="579.0" stroke="#b5b5b0" stroke-width="1"/>
<text x="296" y="583.0" font-size="12.5" fill="#222222" text-anchor="end">PG15  ADC12_INP7</text>
<rect x="563" y="58" width="60" height="22" rx="6" fill="#3a3a3a"/>
<rect x="451" y="95" width="285" height="90" rx="6" fill="none" stroke="#03234B" stroke-dasharray="5 4" stroke-width="1.2"/>
<text x="603" y="140" font-size="12" fill="#03234B" text-anchor="middle">STLINK-V3EC</text>
<text x="593" y="30" font-size="12.5" fill="#222222" font-weight="bold" text-anchor="middle">CN10 USB-C: PRIMARY DEV PORT -- SWD + RTT debug, VCP console, 5V_STLK power in</text>
<text x="593" y="46" font-size="11" fill="#555555" text-anchor="middle">flash + attach: mise run flash nucleo-n657x0 [--project net]</text>
<rect x="344" y="100" width="22" height="70" rx="3" fill="#161616"/>
<text x="355" y="185" font-size="9" fill="#03234B" text-anchor="middle">CN1</text>
<line x1="344" y1="135" x2="300" y2="135" stroke="#b5b5b0"/>
<text x="296" y="131" font-size="11" fill="#555555" text-anchor="end">CN1 MIPI20: external</text>
<text x="296" y="145" font-size="11" fill="#555555" text-anchor="end">debug probe (SWD/trace)</text>
<circle cx="831" cy="110" r="5" fill="#d64545"/>
<circle cx="831" cy="130" r="5" fill="#3fae5a"/>
<circle cx="831" cy="150" r="5" fill="#e0c23e"/>
<text x="831" y="172" font-size="9" fill="#03234B" text-anchor="middle">LEDs</text>
<rect x="484" y="208" width="8" height="8" fill="#c9c9c9" stroke="#000" stroke-width="0.5"/>
<rect x="484" y="224" width="8" height="8" fill="#c9c9c9" stroke="#000" stroke-width="0.5"/>
<rect x="484" y="240" width="8" height="8" fill="#c9c9c9" stroke="#000" stroke-width="0.5"/>
<text x="480" y="248" font-size="7" fill="#03234B" text-anchor="end">1</text>
<rect x="481" y="221" width="14" height="30" rx="3" fill="#3a5a8a" stroke="#111" stroke-width="1"/>
<text x="488" y="262" font-size="9" fill="#03234B" text-anchor="middle">JP1</text>
<text x="488" y="274" font-size="7.5" fill="#03234B" text-anchor="middle">1-2 dflt</text>
<rect x="516" y="208" width="8" height="8" fill="#c9c9c9" stroke="#000" stroke-width="0.5"/>
<rect x="516" y="224" width="8" height="8" fill="#c9c9c9" stroke="#000" stroke-width="0.5"/>
<rect x="516" y="240" width="8" height="8" fill="#c9c9c9" stroke="#000" stroke-width="0.5"/>
<text x="512" y="248" font-size="7" fill="#03234B" text-anchor="end">1</text>
<rect x="513" y="205" width="14" height="30" rx="3" fill="#3a5a8a" stroke="#111" stroke-width="1"/>
<text x="520" y="262" font-size="9" fill="#03234B" text-anchor="middle">JP2</text>
<text x="520" y="274" font-size="7.5" fill="#03234B" text-anchor="middle">2-3 DEV</text>
<rect x="565" y="208" width="8" height="8" fill="#c9c9c9" stroke="#000" stroke-width="0.5"/>
<rect x="581" y="208" width="8" height="8" fill="#c9c9c9" stroke="#000" stroke-width="0.5"/>
<text x="595" y="215" font-size="7.5" fill="#03234B">5V_STLK</text>
<rect x="565" y="226" width="8" height="8" fill="#c9c9c9" stroke="#000" stroke-width="0.5"/>
<rect x="581" y="226" width="8" height="8" fill="#c9c9c9" stroke="#000" stroke-width="0.5"/>
<text x="595" y="233" font-size="7.5" fill="#9a9a94">USB_SNK</text>
<rect x="565" y="244" width="8" height="8" fill="#c9c9c9" stroke="#000" stroke-width="0.5"/>
<rect x="581" y="244" width="8" height="8" fill="#c9c9c9" stroke="#000" stroke-width="0.5"/>
<text x="595" y="251" font-size="7.5" fill="#9a9a94">VIN</text>
<rect x="562" y="205" width="30" height="14" rx="3" fill="#3a5a8a" stroke="#111" stroke-width="1"/>
<text x="578" y="262" font-size="9" fill="#03234B" text-anchor="middle">CN9 PWR SRC</text>
<text x="578" y="274" font-size="7.5" fill="#03234B" text-anchor="middle">1-2 dflt</text>
<text x="296" y="218" font-size="11" fill="#555555" text-anchor="end">JP2 BOOT1 capped 2-3 (upper) = dev</text>
<text x="296" y="232" font-size="11" fill="#555555" text-anchor="end">boot; JP1 + CN9 stay at defaults.</text>
<text x="296" y="246" font-size="11" fill="#555555" text-anchor="end">BOOT latches at reset-- power-cycle</text>
<text x="296" y="260" font-size="11" fill="#555555" text-anchor="end">after moving a cap.</text>
<rect x="745" y="162" width="6" height="6" fill="#c9c9c9" stroke="#000" stroke-width="0.5"/>
<rect x="745" y="172" width="6" height="6" fill="#c9c9c9" stroke="#000" stroke-width="0.5"/>
<rect x="753" y="162" width="6" height="6" fill="#c9c9c9" stroke="#000" stroke-width="0.5"/>
<rect x="753" y="172" width="6" height="6" fill="#c9c9c9" stroke="#000" stroke-width="0.5"/>
<rect x="761" y="162" width="6" height="6" fill="#c9c9c9" stroke="#000" stroke-width="0.5"/>
<rect x="761" y="172" width="6" height="6" fill="#c9c9c9" stroke="#000" stroke-width="0.5"/>
<rect x="769" y="162" width="6" height="6" fill="#c9c9c9" stroke="#000" stroke-width="0.5"/>
<rect x="769" y="172" width="6" height="6" fill="#c9c9c9" stroke="#000" stroke-width="0.5"/>
<rect x="777" y="162" width="6" height="6" fill="#c9c9c9" stroke="#000" stroke-width="0.5"/>
<rect x="777" y="172" width="6" height="6" fill="#c9c9c9" stroke="#000" stroke-width="0.5"/>
<rect x="785" y="162" width="6" height="6" fill="#c9c9c9" stroke="#000" stroke-width="0.5"/>
<rect x="785" y="172" width="6" height="6" fill="#c9c9c9" stroke="#000" stroke-width="0.5"/>
<rect x="793" y="162" width="6" height="6" fill="#c9c9c9" stroke="#000" stroke-width="0.5"/>
<rect x="793" y="172" width="6" height="6" fill="#c9c9c9" stroke="#000" stroke-width="0.5"/>
<text x="772" y="191" font-size="9" fill="#03234B" text-anchor="middle">CN12</text>
<rect x="757" y="213" width="8" height="8" fill="#c9c9c9" stroke="#000" stroke-width="0.5"/>
<rect x="757" y="229" width="8" height="8" fill="#c9c9c9" stroke="#000" stroke-width="0.5"/>
<text x="753" y="237" font-size="7" fill="#03234B" text-anchor="end">1</text>
<text x="761" y="251" font-size="9" fill="#03234B" text-anchor="middle">JP3</text>
<text x="761" y="263" font-size="7.5" fill="#03234B" text-anchor="middle">OFF</text>
<text x="890" y="160" font-size="11" fill="#555555">CN12 power test (UM3417 Table 7/8):</text>
<text x="890" y="174" font-size="11" fill="#555555">14-pin, always fitted, ammeter tap</text>
<text x="890" y="188" font-size="11" fill="#555555">not JTAG/SWD; CN1/MIPI20 is the debug port</text>
<text x="890" y="202" font-size="11" fill="#555555">JP3 STLK_RST: 2-pin, default OFF (open)</text>
<rect x="528" y="580" width="130" height="130" rx="6" fill="#242424" stroke="#000"/>
<text x="593" y="638" font-size="14" fill="#eee" text-anchor="middle">STM32</text>
<text x="593" y="656" font-size="14" fill="#eee" text-anchor="middle">N657X0Q</text>
<circle cx="539" cy="591" r="3" fill="#888"/>
<rect x="352" y="760" width="120" height="14" rx="3" fill="#161616"/>
<text x="412" y="788" font-size="9" fill="#03234B" text-anchor="middle">CN6 camera</text>
<circle cx="372" cy="1078" r="16" fill="#2563eb" stroke="#111"/>
<text x="372" y="1108" font-size="10" fill="#03234B" text-anchor="middle">B1 USER</text>
<circle cx="814" cy="1078" r="16" fill="#1c1c1c" stroke="#666"/>
<text x="814" y="1108" font-size="10" fill="#03234B" text-anchor="middle">B2 RESET</text>
<rect x="530" y="1128" width="56" height="22" rx="5" fill="#3a3a3a"/>
<text x="558" y="1122" font-size="9" fill="#03234B" text-anchor="middle">CN8 USB</text>
<rect x="613" y="1096" width="76" height="54" rx="4" fill="#3a3a3a"/>
<rect x="629" y="1112" width="44" height="30" fill="#181818"/>
<text x="651" y="1090" font-size="9" fill="#03234B" text-anchor="middle">CN11 ETH</text>
<line x1="356" y1="1078" x2="300" y2="1078" stroke="#b5b5b0"/>
<text x="296" y="1074" font-size="12.5" fill="#222222" text-anchor="end">PC13  EXTI13</text>
<line x1="689" y1="1123" x2="886" y2="1123" stroke="#b5b5b0"/>
<text x="890" y="1119" font-size="12.5" fill="#222222">on-chip ETH1 RMII, LAN8742A PHY</text>
<text x="890" y="1135" font-size="11" fill="#555555">net feature: DHCP + SNTP + MQTT/TLS</text>
<line x1="870" y1="592" x2="886" y2="770" stroke="#b5b5b0"/>
<text x="890" y="766" font-size="11" fill="#555555">ST morpho CN3/CN15: most remaining I/O</text>
<text x="890" y="780" font-size="11" fill="#555555">(UM3417 Tables 13-14)</text>
<rect x="310" y="1170" width="12" height="12" fill="#c0392b" stroke="#000" stroke-width="0.6"/>
<text x="330" y="1180" font-size="12.5" fill="#222222">power pin (3V3, 5V, VIN, VDDIO, VBAT)</text>
<rect x="620" y="1170" width="12" height="12" fill="#111111" stroke="#bbbbbb" stroke-width="0.6"/>
<text x="640" y="1180" font-size="12.5" fill="#222222">ground pin (GND, AGND)</text>
<text x="310" y="1200" font-size="12.5" fill="#222222">Debug hookup: CN10 USB-C alone carries SWD, RTT, and the VCP; CN1 takes an external probe.</text>
<text x="310" y="1222" font-size="11" fill="#555555">Arduino V3 header data: UM3417 Rev 3, Table 12.  A0-A5 route through the on-board 3.3V-to-1.8V</text>
<text x="310" y="1237" font-size="11" fill="#555555">adaptation amplifier; the 1.8V-domain ADC pin is shown.  Morpho rows: odd/even pin names, Table 13.</text>
</svg>
