<svg xmlns="http://www.w3.org/2000/svg" viewBox="0 0 1500 1270" font-family="Helvetica, Arial, sans-serif">
<!-- Generated by tools/gen_pinout_svg.py; edit that script, not this file. -->
<rect x="0" y="0" width="1500" height="1270" fill="#f7f3eb"/>
<rect x="310" y="70" width="566" height="1080" rx="14" fill="#ffffff" stroke="#03234B" stroke-width="3"/>
<rect x="318" y="200" width="20" height="504" fill="#161616" rx="3"/>
<rect x="321.5" y="208" width="5.5" height="5.5" fill="#8f8f8f"/>
<rect x="329" y="208" width="5.5" height="5.5" fill="#8f8f8f"/>
<rect x="321.5" y="234" width="5.5" height="5.5" fill="#8f8f8f"/>
<rect x="329" y="234" width="5.5" height="5.5" fill="#8f8f8f"/>
<rect x="321.5" y="260" width="5.5" height="5.5" fill="#8f8f8f"/>
<rect x="329" y="260" width="5.5" height="5.5" fill="#8f8f8f"/>
<rect x="321.5" y="286" width="5.5" height="5.5" fill="#8f8f8f"/>
<rect x="329" y="286" width="5.5" height="5.5" fill="#8f8f8f"/>
<rect x="321.5" y="312" width="5.5" height="5.5" fill="#8f8f8f"/>
<rect x="329" y="312" width="5.5" height="5.5" fill="#8f8f8f"/>
<rect x="321.5" y="338" width="5.5" height="5.5" fill="#8f8f8f"/>
<rect x="329" y="338" width="5.5" height="5.5" fill="#8f8f8f"/>
<rect x="321.5" y="364" width="5.5" height="5.5" fill="#8f8f8f"/>
<rect x="329" y="364" width="5.5" height="5.5" fill="#8f8f8f"/>
<rect x="321.5" y="390" width="5.5" height="5.5" fill="#8f8f8f"/>
<rect x="329" y="390" width="5.5" height="5.5" fill="#8f8f8f"/>
<rect x="321.5" y="416" width="5.5" height="5.5" fill="#8f8f8f"/>
<rect x="329" y="416" width="5.5" height="5.5" fill="#8f8f8f"/>
<rect x="321.5" y="442" width="5.5" height="5.5" fill="#8f8f8f"/>
<rect x="329" y="442" width="5.5" height="5.5" fill="#8f8f8f"/>
<rect x="321.5" y="468" width="5.5" height="5.5" fill="#8f8f8f"/>
<rect x="329" y="468" width="5.5" height="5.5" fill="#8f8f8f"/>
<rect x="321.5" y="494" width="5.5" height="5.5" fill="#8f8f8f"/>
<rect x="329" y="494" width="5.5" height="5.5" fill="#8f8f8f"/>
<rect x="321.5" y="520" width="5.5" height="5.5" fill="#8f8f8f"/>
<rect x="329" y="520" width="5.5" height="5.5" fill="#8f8f8f"/>
<rect x="321.5" y="546" width="5.5" height="5.5" fill="#8f8f8f"/>
<rect x="329" y="546" width="5.5" height="5.5" fill="#8f8f8f"/>
<rect x="321.5" y="572" width="5.5" height="5.5" fill="#8f8f8f"/>
<rect x="329" y="572" width="5.5" height="5.5" fill="#8f8f8f"/>
<rect x="321.5" y="598" width="5.5" height="5.5" fill="#8f8f8f"/>
<rect x="329" y="598" width="5.5" height="5.5" fill="#8f8f8f"/>
<rect x="321.5" y="624" width="5.5" height="5.5" fill="#8f8f8f"/>
<rect x="329" y="624" width="5.5" height="5.5" fill="#8f8f8f"/>
<rect x="321.5" y="650" width="5.5" height="5.5" fill="#8f8f8f"/>
<rect x="329" y="650" width="5.5" height="5.5" fill="#8f8f8f"/>
<rect x="321.5" y="676" width="5.5" height="5.5" fill="#8f8f8f"/>
<rect x="329" y="676" width="5.5" height="5.5" fill="#8f8f8f"/>
<text x="328" y="192" font-size="11" fill="#03234B" text-anchor="middle">CN3</text>
<circle cx="324" cy="732" r="2.6" fill="none" stroke="#9a9a9a" stroke-width="1"/>
<circle cx="331.5" cy="732" r="2.6" fill="none" stroke="#9a9a9a" stroke-width="1"/>
<circle cx="324" cy="758" r="2.6" fill="none" stroke="#9a9a9a" stroke-width="1"/>
<circle cx="331.5" cy="758" r="2.6" fill="none" stroke="#9a9a9a" stroke-width="1"/>
<circle cx="324" cy="784" r="2.6" fill="none" stroke="#9a9a9a" stroke-width="1"/>
<circle cx="331.5" cy="784" r="2.6" fill="none" stroke="#9a9a9a" stroke-width="1"/>
<circle cx="324" cy="810" r="2.6" fill="none" stroke="#9a9a9a" stroke-width="1"/>
<circle cx="331.5" cy="810" r="2.6" fill="none" stroke="#9a9a9a" stroke-width="1"/>
<circle cx="324" cy="836" r="2.6" fill="none" stroke="#9a9a9a" stroke-width="1"/>
<circle cx="331.5" cy="836" r="2.6" fill="none" stroke="#9a9a9a" stroke-width="1"/>
<circle cx="324" cy="862" r="2.6" fill="none" stroke="#9a9a9a" stroke-width="1"/>
<circle cx="331.5" cy="862" r="2.6" fill="none" stroke="#9a9a9a" stroke-width="1"/>
<circle cx="324" cy="888" r="2.6" fill="none" stroke="#9a9a9a" stroke-width="1"/>
<circle cx="331.5" cy="888" r="2.6" fill="none" stroke="#9a9a9a" stroke-width="1"/>
<circle cx="324" cy="914" r="2.6" fill="none" stroke="#9a9a9a" stroke-width="1"/>
<circle cx="331.5" cy="914" r="2.6" fill="none" stroke="#9a9a9a" stroke-width="1"/>
<circle cx="324" cy="940" r="2.6" fill="none" stroke="#9a9a9a" stroke-width="1"/>
<circle cx="331.5" cy="940" r="2.6" fill="none" stroke="#9a9a9a" stroke-width="1"/>
<circle cx="324" cy="966" r="2.6" fill="none" stroke="#9a9a9a" stroke-width="1"/>
<circle cx="331.5" cy="966" r="2.6" fill="none" stroke="#9a9a9a" stroke-width="1"/>
<text x="328" y="998" font-size="8.5" fill="#555555" text-anchor="middle">CN2</text>
<rect x="848" y="200" width="20" height="504" fill="#161616" rx="3"/>
<rect x="851.5" y="208" width="5.5" height="5.5" fill="#8f8f8f"/>
<rect x="859" y="208" width="5.5" height="5.5" fill="#8f8f8f"/>
<rect x="851.5" y="234" width="5.5" height="5.5" fill="#e8a13d" stroke="#000" stroke-width="0.5"/>
<text x="844" y="240" font-size="8.5" fill="#8a5a00" font-weight="bold" text-anchor="end">3</text>
<rect x="859" y="234" width="5.5" height="5.5" fill="#8f8f8f"/>
<rect x="851.5" y="260" width="5.5" height="5.5" fill="#e8a13d" stroke="#000" stroke-width="0.5"/>
<text x="844" y="266" font-size="8.5" fill="#8a5a00" font-weight="bold" text-anchor="end">5</text>
<rect x="859" y="260" width="5.5" height="5.5" fill="#8f8f8f"/>
<rect x="851.5" y="286" width="5.5" height="5.5" fill="#8f8f8f"/>
<rect x="859" y="286" width="5.5" height="5.5" fill="#8f8f8f"/>
<rect x="851.5" y="312" width="5.5" height="5.5" fill="#8f8f8f"/>
<rect x="859" y="312" width="5.5" height="5.5" fill="#8f8f8f"/>
<rect x="851.5" y="338" width="5.5" height="5.5" fill="#8f8f8f"/>
<rect x="859" y="338" width="5.5" height="5.5" fill="#8f8f8f"/>
<rect x="851.5" y="364" width="5.5" height="5.5" fill="#8f8f8f"/>
<rect x="859" y="364" width="5.5" height="5.5" fill="#8f8f8f"/>
<rect x="851.5" y="390" width="5.5" height="5.5" fill="#8f8f8f"/>
<rect x="859" y="390" width="5.5" height="5.5" fill="#8f8f8f"/>
<rect x="851.5" y="416" width="5.5" height="5.5" fill="#8f8f8f"/>
<rect x="859" y="416" width="5.5" height="5.5" fill="#8f8f8f"/>
<rect x="851.5" y="442" width="5.5" height="5.5" fill="#8f8f8f"/>
<rect x="859" y="442" width="5.5" height="5.5" fill="#8f8f8f"/>
<rect x="851.5" y="468" width="5.5" height="5.5" fill="#8f8f8f"/>
<rect x="859" y="468" width="5.5" height="5.5" fill="#8f8f8f"/>
<rect x="851.5" y="494" width="5.5" height="5.5" fill="#8f8f8f"/>
<rect x="859" y="494" width="5.5" height="5.5" fill="#8f8f8f"/>
<rect x="851.5" y="520" width="5.5" height="5.5" fill="#8f8f8f"/>
<rect x="859" y="520" width="5.5" height="5.5" fill="#8f8f8f"/>
<rect x="851.5" y="546" width="5.5" height="5.5" fill="#8f8f8f"/>
<rect x="859" y="546" width="5.5" height="5.5" fill="#8f8f8f"/>
<rect x="851.5" y="572" width="5.5" height="5.5" fill="#8f8f8f"/>
<rect x="859" y="572" width="5.5" height="5.5" fill="#8f8f8f"/>
<rect x="851.5" y="598" width="5.5" height="5.5" fill="#e8a13d" stroke="#000" stroke-width="0.5"/>
<text x="844" y="604" font-size="8.5" fill="#8a5a00" font-weight="bold" text-anchor="end">31</text>
<rect x="859" y="598" width="5.5" height="5.5" fill="#8f8f8f"/>
<rect x="851.5" y="624" width="5.5" height="5.5" fill="#e8a13d" stroke="#000" stroke-width="0.5"/>
<text x="844" y="630" font-size="8.5" fill="#8a5a00" font-weight="bold" text-anchor="end">33</text>
<rect x="859" y="624" width="5.5" height="5.5" fill="#8f8f8f"/>
<rect x="851.5" y="650" width="5.5" height="5.5" fill="#8f8f8f"/>
<rect x="859" y="650" width="5.5" height="5.5" fill="#8f8f8f"/>
<rect x="851.5" y="676" width="5.5" height="5.5" fill="#8f8f8f"/>
<rect x="859" y="676" width="5.5" height="5.5" fill="#e8a13d" stroke="#000" stroke-width="0.5"/>
<text x="844" y="682" font-size="8.5" fill="#8a5a00" font-weight="bold" text-anchor="end">38</text>
<text x="858" y="192" font-size="11" fill="#03234B" text-anchor="middle">CN15</text>
<circle cx="854" cy="732" r="2.6" fill="none" stroke="#9a9a9a" stroke-width="1"/>
<circle cx="861.5" cy="732" r="2.6" fill="none" stroke="#9a9a9a" stroke-width="1"/>
<circle cx="854" cy="758" r="2.6" fill="none" stroke="#9a9a9a" stroke-width="1"/>
<circle cx="861.5" cy="758" r="2.6" fill="none" stroke="#9a9a9a" stroke-width="1"/>
<circle cx="854" cy="784" r="2.6" fill="none" stroke="#9a9a9a" stroke-width="1"/>
<circle cx="861.5" cy="784" r="2.6" fill="none" stroke="#9a9a9a" stroke-width="1"/>
<circle cx="854" cy="810" r="2.6" fill="none" stroke="#9a9a9a" stroke-width="1"/>
<circle cx="861.5" cy="810" r="2.6" fill="none" stroke="#9a9a9a" stroke-width="1"/>
<circle cx="854" cy="836" r="2.6" fill="none" stroke="#9a9a9a" stroke-width="1"/>
<circle cx="861.5" cy="836" r="2.6" fill="none" stroke="#9a9a9a" stroke-width="1"/>
<circle cx="854" cy="862" r="2.6" fill="none" stroke="#9a9a9a" stroke-width="1"/>
<circle cx="861.5" cy="862" r="2.6" fill="none" stroke="#9a9a9a" stroke-width="1"/>
<circle cx="854" cy="888" r="2.6" fill="none" stroke="#9a9a9a" stroke-width="1"/>
<circle cx="861.5" cy="888" r="2.6" fill="none" stroke="#9a9a9a" stroke-width="1"/>
<circle cx="854" cy="914" r="2.6" fill="none" stroke="#9a9a9a" stroke-width="1"/>
<circle cx="861.5" cy="914" r="2.6" fill="none" stroke="#9a9a9a" stroke-width="1"/>
<circle cx="854" cy="940" r="2.6" fill="none" stroke="#9a9a9a" stroke-width="1"/>
<circle cx="861.5" cy="940" r="2.6" fill="none" stroke="#9a9a9a" stroke-width="1"/>
<circle cx="854" cy="966" r="2.6" fill="none" stroke="#9a9a9a" stroke-width="1"/>
<circle cx="861.5" cy="966" r="2.6" fill="none" stroke="#9a9a9a" stroke-width="1"/>
<text x="858" y="998" font-size="8.5" fill="#555555" text-anchor="middle">CN16</text>
<text x="593" y="530" font-size="15" fill="#03234B" text-anchor="middle" font-weight="bold">NUCLEO-N657X0-Q</text>
<text x="593" y="548" font-size="11" fill="#03234B" text-anchor="middle">MB1940</text>
<rect x="804" y="215" width="28" height="270" rx="4" fill="#181818"/>
<text x="818" y="208" font-size="11" fill="#03234B" text-anchor="middle">CN14</text>
<rect x="812" y="223" width="12" height="12" fill="#e8a13d" stroke="#000" stroke-width="0.6"/>
<text x="798" y="233" font-size="11" fill="#03234B" text-anchor="end">D15</text>
<line x1="876" y1="229" x2="886" y2="229" stroke="#b5b5b0" stroke-width="1"/>
<text x="890" y="233" font-size="12.5" fill="#8a5a00" font-weight="bold" text-anchor="start">PH9  I2C1_SCL  (amp SCL) *</text>
<rect x="812" y="249" width="12" height="12" fill="#e8a13d" stroke="#000" stroke-width="0.6"/>
<text x="798" y="259" font-size="11" fill="#03234B" text-anchor="end">D14</text>
<line x1="876" y1="255" x2="886" y2="255" stroke="#b5b5b0" stroke-width="1"/>
<text x="890" y="259" font-size="12.5" fill="#8a5a00" font-weight="bold" text-anchor="start">PC1  I2C1_SDA  (amp SDA) *</text>
<rect x="812" y="275" width="12" height="12" fill="#c9c9c9" stroke="#000" stroke-width="0.6"/>
<text x="798" y="285" font-size="11" fill="#03234B" text-anchor="end">AREF</text>
<line x1="876" y1="281" x2="886" y2="281" stroke="#b5b5b0" stroke-width="1"/>
<text x="890" y="285" font-size="12.5" fill="#222222" text-anchor="start">AVDD</text>
<rect x="812" y="301" width="12" height="12" fill="#c9c9c9" stroke="#000" stroke-width="0.6"/>
<text x="798" y="311" font-size="11" fill="#03234B" text-anchor="end">GND</text>
<line x1="876" y1="307" x2="886" y2="307" stroke="#b5b5b0" stroke-width="1"/>
<text x="890" y="311" font-size="12.5" fill="#222222" text-anchor="start">Ground</text>
<rect x="812" y="327" width="12" height="12" fill="#c9c9c9" stroke="#000" stroke-width="0.6"/>
<text x="798" y="337" font-size="11" fill="#03234B" text-anchor="end">D13</text>
<line x1="876" y1="333" x2="886" y2="333" stroke="#b5b5b0" stroke-width="1"/>
<text x="890" y="337" font-size="12.5" fill="#222222" text-anchor="start">PE15  SPI5_SCK</text>
<rect x="812" y="353" width="12" height="12" fill="#c9c9c9" stroke="#000" stroke-width="0.6"/>
<text x="798" y="363" font-size="11" fill="#03234B" text-anchor="end">D12</text>
<line x1="876" y1="359" x2="886" y2="359" stroke="#b5b5b0" stroke-width="1"/>
<text x="890" y="363" font-size="12.5" fill="#222222" text-anchor="start">PG1  SPI5_MISO</text>
<rect x="812" y="379" width="12" height="12" fill="#c9c9c9" stroke="#000" stroke-width="0.6"/>
<text x="798" y="389" font-size="11" fill="#03234B" text-anchor="end">D11</text>
<line x1="876" y1="385" x2="886" y2="385" stroke="#b5b5b0" stroke-width="1"/>
<text x="890" y="389" font-size="12.5" fill="#222222" text-anchor="start">PG2  SPI5_MOSI/T14</text>
<rect x="812" y="405" width="12" height="12" fill="#c9c9c9" stroke="#000" stroke-width="0.6"/>
<text x="798" y="415" font-size="11" fill="#03234B" text-anchor="end">D10</text>
<line x1="876" y1="411" x2="886" y2="411" stroke="#b5b5b0" stroke-width="1"/>
<text x="890" y="415" font-size="12.5" fill="#222222" text-anchor="start">PA3  SPI5_CS/T16</text>
<rect x="812" y="431" width="12" height="12" fill="#c9c9c9" stroke="#000" stroke-width="0.6"/>
<text x="798" y="441" font-size="11" fill="#03234B" text-anchor="end">D9</text>
<line x1="876" y1="437" x2="886" y2="437" stroke="#b5b5b0" stroke-width="1"/>
<text x="890" y="441" font-size="12.5" fill="#222222" text-anchor="start">PD7  TIM1_CH2</text>
<rect x="812" y="457" width="12" height="12" fill="#c9c9c9" stroke="#000" stroke-width="0.6"/>
<text x="798" y="467" font-size="11" fill="#03234B" text-anchor="end">D8</text>
<line x1="876" y1="463" x2="886" y2="463" stroke="#b5b5b0" stroke-width="1"/>
<text x="890" y="467" font-size="12.5" fill="#222222" text-anchor="start">PD12  --</text>
<rect x="804" y="515" width="28" height="218" rx="4" fill="#181818"/>
<text x="818" y="508" font-size="11" fill="#03234B" text-anchor="middle">CN13</text>
<rect x="812" y="523" width="12" height="12" fill="#c9c9c9" stroke="#000" stroke-width="0.6"/>
<text x="798" y="533" font-size="11" fill="#03234B" text-anchor="end">D7</text>
<line x1="876" y1="529" x2="886" y2="529" stroke="#b5b5b0" stroke-width="1"/>
<text x="890" y="533" font-size="12.5" fill="#222222" text-anchor="start">PE11  --</text>
<rect x="812" y="549" width="12" height="12" fill="#c9c9c9" stroke="#000" stroke-width="0.6"/>
<text x="798" y="559" font-size="11" fill="#03234B" text-anchor="end">D6</text>
<line x1="876" y1="555" x2="886" y2="555" stroke="#b5b5b0" stroke-width="1"/>
<text x="890" y="559" font-size="12.5" fill="#222222" text-anchor="start">PD5  TIM1_CH4N</text>
<rect x="812" y="575" width="12" height="12" fill="#c9c9c9" stroke="#000" stroke-width="0.6"/>
<text x="798" y="585" font-size="11" fill="#03234B" text-anchor="end">D5</text>
<line x1="876" y1="581" x2="886" y2="581" stroke="#b5b5b0" stroke-width="1"/>
<text x="890" y="585" font-size="12.5" fill="#222222" text-anchor="start">PE10  TIM1_CH2N</text>
<rect x="812" y="601" width="12" height="12" fill="#c9c9c9" stroke="#000" stroke-width="0.6"/>
<text x="798" y="611" font-size="11" fill="#03234B" text-anchor="end">D4</text>
<line x1="876" y1="607" x2="886" y2="607" stroke="#b5b5b0" stroke-width="1"/>
<text x="890" y="611" font-size="12.5" fill="#222222" text-anchor="start">PE0  --</text>
<rect x="812" y="627" width="12" height="12" fill="#e8a13d" stroke="#000" stroke-width="0.6"/>
<text x="798" y="637" font-size="11" fill="#03234B" text-anchor="end">D3</text>
<line x1="876" y1="633" x2="886" y2="633" stroke="#b5b5b0" stroke-width="1"/>
<text x="890" y="637" font-size="12.5" fill="#8a5a00" font-weight="bold" text-anchor="start">PE9  TIM1_CH1  (audio PWM) *</text>
<rect x="812" y="653" width="12" height="12" fill="#e8a13d" stroke="#000" stroke-width="0.6"/>
<text x="798" y="663" font-size="11" fill="#03234B" text-anchor="end">D2</text>
<line x1="876" y1="659" x2="886" y2="659" stroke="#b5b5b0" stroke-width="1"/>
<text x="890" y="663" font-size="12.5" fill="#8a5a00" font-weight="bold" text-anchor="start">PD0  GPIO  (amp mute) *</text>
<rect x="812" y="679" width="12" height="12" fill="#c9c9c9" stroke="#000" stroke-width="0.6"/>
<text x="798" y="689" font-size="11" fill="#03234B" text-anchor="end">D1</text>
<line x1="876" y1="685" x2="886" y2="685" stroke="#b5b5b0" stroke-width="1"/>
<text x="890" y="689" font-size="12.5" fill="#222222" text-anchor="start">PD8  USART3_TX</text>
<rect x="812" y="705" width="12" height="12" fill="#c9c9c9" stroke="#000" stroke-width="0.6"/>
<text x="798" y="715" font-size="11" fill="#03234B" text-anchor="end">D0</text>
<line x1="876" y1="711" x2="886" y2="711" stroke="#b5b5b0" stroke-width="1"/>
<text x="890" y="715" font-size="12.5" fill="#222222" text-anchor="start">PD9  USART3_RX</text>
<rect x="342" y="295" width="28" height="218" rx="4" fill="#181818"/>
<text x="356" y="288" font-size="11" fill="#03234B" text-anchor="middle">CN5</text>
<rect x="350" y="303" width="12" height="12" fill="#c9c9c9" stroke="#000" stroke-width="0.6"/>
<text x="376" y="313" font-size="11" fill="#03234B">NC</text>
<line x1="310" y1="309" x2="300" y2="309" stroke="#b5b5b0" stroke-width="1"/>
<text x="296" y="313" font-size="12.5" fill="#222222" text-anchor="end">5V_IN test</text>
<rect x="350" y="329" width="12" height="12" fill="#c9c9c9" stroke="#000" stroke-width="0.6"/>
<text x="376" y="339" font-size="11" fill="#03234B">IOREF</text>
<line x1="310" y1="335" x2="300" y2="335" stroke="#b5b5b0" stroke-width="1"/>
<text x="296" y="339" font-size="12.5" fill="#222222" text-anchor="end">3V3 ref</text>
<rect x="350" y="355" width="12" height="12" fill="#c9c9c9" stroke="#000" stroke-width="0.6"/>
<text x="376" y="365" font-size="11" fill="#03234B">RST</text>
<line x1="310" y1="361" x2="300" y2="361" stroke="#b5b5b0" stroke-width="1"/>
<text x="296" y="365" font-size="12.5" fill="#222222" text-anchor="end">NRST  Reset</text>
<rect x="350" y="381" width="12" height="12" fill="#c9c9c9" stroke="#000" stroke-width="0.6"/>
<text x="376" y="391" font-size="11" fill="#03234B">3V3</text>
<line x1="310" y1="387" x2="300" y2="387" stroke="#b5b5b0" stroke-width="1"/>
<text x="296" y="391" font-size="12.5" fill="#222222" text-anchor="end">3.3V out</text>
<rect x="350" y="407" width="12" height="12" fill="#c9c9c9" stroke="#000" stroke-width="0.6"/>
<text x="376" y="417" font-size="11" fill="#03234B">5V</text>
<line x1="310" y1="413" x2="300" y2="413" stroke="#b5b5b0" stroke-width="1"/>
<text x="296" y="417" font-size="12.5" fill="#222222" text-anchor="end">5V out</text>
<rect x="350" y="433" width="12" height="12" fill="#c9c9c9" stroke="#000" stroke-width="0.6"/>
<text x="376" y="443" font-size="11" fill="#03234B">GND</text>
<line x1="310" y1="439" x2="300" y2="439" stroke="#b5b5b0" stroke-width="1"/>
<text x="296" y="443" font-size="12.5" fill="#222222" text-anchor="end">Ground</text>
<rect x="350" y="459" width="12" height="12" fill="#c9c9c9" stroke="#000" stroke-width="0.6"/>
<text x="376" y="469" font-size="11" fill="#03234B">GND</text>
<line x1="310" y1="465" x2="300" y2="465" stroke="#b5b5b0" stroke-width="1"/>
<text x="296" y="469" font-size="12.5" fill="#222222" text-anchor="end">Ground</text>
<rect x="350" y="485" width="12" height="12" fill="#c9c9c9" stroke="#000" stroke-width="0.6"/>
<text x="376" y="495" font-size="11" fill="#03234B">VIN</text>
<line x1="310" y1="491" x2="300" y2="491" stroke="#b5b5b0" stroke-width="1"/>
<text x="296" y="495" font-size="12.5" fill="#222222" text-anchor="end">Power in</text>
<rect x="342" y="565" width="28" height="166" rx="4" fill="#181818"/>
<text x="356" y="558" font-size="11" fill="#03234B" text-anchor="middle">CN4</text>
<rect x="350" y="573" width="12" height="12" fill="#e8a13d" stroke="#000" stroke-width="0.6"/>
<text x="376" y="583" font-size="11" fill="#03234B">A0</text>
<line x1="310" y1="579" x2="300" y2="579" stroke="#b5b5b0" stroke-width="1"/>
<text x="296" y="583" font-size="12.5" fill="#8a5a00" font-weight="bold" text-anchor="end">PA8  ADC12_INP5  (mic in) *</text>
<rect x="350" y="599" width="12" height="12" fill="#c9c9c9" stroke="#000" stroke-width="0.6"/>
<text x="376" y="609" font-size="11" fill="#03234B">A1</text>
<line x1="310" y1="605" x2="300" y2="605" stroke="#b5b5b0" stroke-width="1"/>
<text x="296" y="609" font-size="12.5" fill="#222222" text-anchor="end">PA9  ADC12_INP10</text>
<rect x="350" y="625" width="12" height="12" fill="#c9c9c9" stroke="#000" stroke-width="0.6"/>
<text x="376" y="635" font-size="11" fill="#03234B">A2</text>
<line x1="310" y1="631" x2="300" y2="631" stroke="#b5b5b0" stroke-width="1"/>
<text x="296" y="635" font-size="12.5" fill="#222222" text-anchor="end">PA10  ADC12_INP11</text>
<rect x="350" y="651" width="12" height="12" fill="#c9c9c9" stroke="#000" stroke-width="0.6"/>
<text x="376" y="661" font-size="11" fill="#03234B">A3</text>
<line x1="310" y1="657" x2="300" y2="657" stroke="#b5b5b0" stroke-width="1"/>
<text x="296" y="661" font-size="12.5" fill="#222222" text-anchor="end">PA12  ADC12_INP13</text>
<rect x="350" y="677" width="12" height="12" fill="#c9c9c9" stroke="#000" stroke-width="0.6"/>
<text x="376" y="687" font-size="11" fill="#03234B">A4</text>
<line x1="310" y1="683" x2="300" y2="683" stroke="#b5b5b0" stroke-width="1"/>
<text x="296" y="687" font-size="12.5" fill="#222222" text-anchor="end">PF3  ADC1_INP16</text>
<rect x="350" y="703" width="12" height="12" fill="#c9c9c9" stroke="#000" stroke-width="0.6"/>
<text x="376" y="713" font-size="11" fill="#03234B">A5</text>
<line x1="310" y1="709" x2="300" y2="709" stroke="#b5b5b0" stroke-width="1"/>
<text x="296" y="713" font-size="12.5" fill="#222222" text-anchor="end">PG15  ADC12_INP7</text>
<rect x="563" y="58" width="60" height="22" rx="6" fill="#3a3a3a"/>
<rect x="451" y="95" width="285" height="90" rx="6" fill="none" stroke="#03234B" stroke-dasharray="5 4" stroke-width="1.2"/>
<text x="603" y="140" font-size="12" fill="#03234B" text-anchor="middle">STLINK-V3EC</text>
<text x="593" y="45" font-size="12.5" fill="#222222" text-anchor="middle">CN10 USB-C: ST-LINK (SWD + RTT), VCP console, 5V_STLK power</text>
<rect x="344" y="100" width="22" height="70" rx="3" fill="#161616"/>
<text x="355" y="185" font-size="9" fill="#03234B" text-anchor="middle">CN1</text>
<line x1="344" y1="135" x2="300" y2="135" stroke="#b5b5b0"/>
<text x="296" y="131" font-size="11" fill="#555555" text-anchor="end">CN1 MIPI20: external</text>
<text x="296" y="145" font-size="11" fill="#555555" text-anchor="end">debug probe (SWD/trace)</text>
<circle cx="831" cy="110" r="5" fill="#d64545"/>
<circle cx="831" cy="130" r="5" fill="#3fae5a"/>
<circle cx="831" cy="150" r="5" fill="#e0c23e"/>
<text x="831" y="172" font-size="9" fill="#03234B" text-anchor="middle">LEDs</text>
<rect x="430" y="210" width="20" height="44" rx="3" fill="#161616"/>
<rect x="435" y="216" width="10" height="14" fill="#d9d9d9"/>
<text x="440" y="268" font-size="9" fill="#03234B" text-anchor="middle">JP1</text>
<rect x="462" y="210" width="20" height="44" rx="3" fill="#161616"/>
<rect x="467" y="216" width="10" height="14" fill="#d9d9d9"/>
<text x="472" y="268" font-size="9" fill="#03234B" text-anchor="middle">JP2</text>
<text x="446" y="284" font-size="9" fill="#03234B" text-anchor="middle">BOOT0 / BOOT1</text>
<rect x="520" y="210" width="56" height="44" rx="3" fill="#161616"/>
<text x="548" y="268" font-size="9" fill="#03234B" text-anchor="middle">CN9 PWR SEL</text>
<text x="296" y="224" font-size="11" fill="#555555" text-anchor="end">JP2 BOOT1 pos 2 = dev boot</text>
<text x="296" y="238" font-size="11" fill="#555555" text-anchor="end">(RAM-boot flow, board page)</text>
<rect x="528" y="580" width="130" height="130" rx="6" fill="#242424" stroke="#000"/>
<text x="593" y="638" font-size="14" fill="#eee" text-anchor="middle">STM32</text>
<text x="593" y="656" font-size="14" fill="#eee" text-anchor="middle">N657X0Q</text>
<circle cx="539" cy="591" r="3" fill="#888"/>
<rect x="352" y="760" width="120" height="14" rx="3" fill="#161616"/>
<text x="412" y="788" font-size="9" fill="#03234B" text-anchor="middle">CN6 camera</text>
<circle cx="372" cy="1078" r="16" fill="#2563eb" stroke="#111"/>
<text x="372" y="1108" font-size="10" fill="#03234B" text-anchor="middle">B1 USER</text>
<circle cx="814" cy="1078" r="16" fill="#1c1c1c" stroke="#666"/>
<text x="814" y="1108" font-size="10" fill="#03234B" text-anchor="middle">B2 RESET</text>
<rect x="530" y="1128" width="56" height="22" rx="5" fill="#3a3a3a"/>
<text x="558" y="1122" font-size="9" fill="#03234B" text-anchor="middle">CN8 USB</text>
<rect x="613" y="1096" width="76" height="54" rx="4" fill="#3a3a3a"/>
<rect x="629" y="1112" width="44" height="30" fill="#181818"/>
<text x="651" y="1090" font-size="9" fill="#03234B" text-anchor="middle">CN11 ETH</text>
<line x1="356" y1="1078" x2="300" y2="1078" stroke="#b5b5b0"/>
<text x="296" y="1074" font-size="12.5" fill="#8a5a00" font-weight="bold" text-anchor="end">PC13  EXTI13  (user button) *</text>
<text x="296" y="1090" font-size="11" fill="#555555" text-anchor="end">spare EXTI, no wiring</text>
<line x1="689" y1="1123" x2="886" y2="1123" stroke="#b5b5b0"/>
<text x="890" y="1119" font-size="12.5" fill="#222222">on-chip ETH1 RMII, LAN8742A PHY</text>
<text x="890" y="1135" font-size="11" fill="#555555">net feature: DHCP + SNTP + MQTT/TLS</text>
<line x1="870" y1="700" x2="886" y2="800" stroke="#b5b5b0"/>
<text x="890" y="796" font-size="11" fill="#555555">morpho CN15 is the routing of record for the amp:</text>
<text x="890" y="810" font-size="11" fill="#555555">pin 3 PH9 SCL, pin 5 PC1 SDA, pin 31 PE9, pin 33 PD0;</text>
<text x="890" y="824" font-size="11" fill="#555555">pin 38 PA1 = G2 fallback ADC tap</text>
<rect x="1190" y="600" width="250" height="60" rx="8" fill="#ffffff" stroke="#888888" stroke-width="1.4"/>
<text x="1315.0" y="620" font-size="12.5" fill="#222222" font-weight="bold" text-anchor="middle">RC low-pass</text>
<text x="1315.0" y="636" font-size="11" fill="#555555" text-anchor="middle">passive, values at gate G3</text>
<rect x="1190" y="700" width="250" height="92" rx="8" fill="#ffffff" stroke="#888888" stroke-width="1.4"/>
<text x="1315.0" y="720" font-size="12.5" fill="#222222" font-weight="bold" text-anchor="middle">MAX9744 class-D amp</text>
<text x="1315.0" y="736" font-size="11" fill="#555555" text-anchor="middle">LEFTIN = JP2.2, SDA = JP2.4</text>
<text x="1315.0" y="752" font-size="11" fill="#555555" text-anchor="middle">MUTE_INV = JP2.8 (low = mute)</text>
<text x="1315.0" y="768" font-size="11" fill="#555555" text-anchor="middle">VDDIO = Nucleo 3V3, I2C 0x4B</text>
<rect x="1190" y="832" width="250" height="60" rx="8" fill="#ffffff" stroke="#888888" stroke-width="1.4"/>
<text x="1315.0" y="852" font-size="12.5" fill="#222222" font-weight="bold" text-anchor="middle">EX25VT2-4 exciter</text>
<text x="1315.0" y="868" font-size="11" fill="#555555" text-anchor="middle">clamped to the H2C toolhead</text>
<rect x="1190" y="932" width="250" height="76" rx="8" fill="#ffffff" stroke="#888888" stroke-width="1.4" stroke-dasharray="6 4"/>
<text x="1315.0" y="952" font-size="12.5" fill="#222222" font-weight="bold" text-anchor="middle">external PVDD supply</text>
<text x="1315.0" y="968" font-size="11" fill="#555555" text-anchor="middle">4.5-14 V, never the Nucleo</text>
<text x="1315.0" y="984" font-size="11" fill="#555555" text-anchor="middle">grounds commoned</text>
<rect x="40" y="740" width="250" height="76" rx="8" fill="#ffffff" stroke="#888888" stroke-width="1.4"/>
<text x="165.0" y="760" font-size="12.5" fill="#222222" font-weight="bold" text-anchor="middle">MEMS mic breakout</text>
<text x="165.0" y="776" font-size="11" fill="#555555" text-anchor="middle">SPH8878LR5H-1 (modified)</text>
<text x="165.0" y="792" font-size="11" fill="#555555" text-anchor="middle">VCC = 3V3, AUD = analog out</text>
<line x1="1078" y1="633" x2="1190" y2="626" stroke="#666666" stroke-width="1.6"/>
<line x1="1190" y1="626" x2="1182.592424560808" y2="631.1115385269682" stroke="#666666" stroke-width="1.6"/>
<line x1="1190" y1="626" x2="1182.0136149032803" y2="621.8505840065263" stroke="#666666" stroke-width="1.6"/>
<line x1="1315" y1="660" x2="1315" y2="700" stroke="#666666" stroke-width="1.6"/>
<line x1="1315" y1="700" x2="1310.360487653607" y2="692.2880012196795" stroke="#666666" stroke-width="1.6"/>
<line x1="1315" y1="700" x2="1319.639512346393" y2="692.2880012196795" stroke="#666666" stroke-width="1.6"/>
<line x1="1315" y1="792" x2="1315" y2="832" stroke="#666666" stroke-width="1.6"/>
<line x1="1315" y1="832" x2="1310.360487653607" y2="824.2880012196795" stroke="#666666" stroke-width="1.6"/>
<line x1="1315" y1="832" x2="1319.639512346393" y2="824.2880012196795" stroke="#666666" stroke-width="1.6"/>
<line x1="1200" y1="945" x2="1175" y2="945" stroke="#666666" stroke-width="1.6"/>
<line x1="1175" y1="945" x2="1175" y2="772" stroke="#666666" stroke-width="1.6"/>
<line x1="1175" y1="772" x2="1190" y2="772" stroke="#666666" stroke-width="1.6"/>
<line x1="1190" y1="772" x2="1182.2880012196795" y2="776.6395123463932" stroke="#666666" stroke-width="1.6"/>
<line x1="1190" y1="772" x2="1182.2880012196795" y2="767.3604876536068" stroke="#666666" stroke-width="1.6"/>
<line x1="872" y1="746" x2="1190" y2="746" stroke="#666666" stroke-width="1.6"/>
<line x1="1190" y1="746" x2="1182.2880012196795" y2="750.6395123463932" stroke="#666666" stroke-width="1.6"/>
<line x1="1190" y1="746" x2="1182.2880012196795" y2="741.3604876536068" stroke="#666666" stroke-width="1.6"/>
<text x="1033" y="738" font-size="10.5" fill="#555555" text-anchor="middle">I2C1 + MUTE_N (morpho CN15 pins 3/5/33)</text>
<line x1="165" y1="740" x2="80" y2="740" stroke="#666666" stroke-width="1.6"/>
<line x1="80" y1="740" x2="80" y2="579" stroke="#666666" stroke-width="1.6"/>
<line x1="80" y1="579" x2="108" y2="579" stroke="#666666" stroke-width="1.6"/>
<line x1="108" y1="579" x2="100.28800121967947" y2="583.6395123463932" stroke="#666666" stroke-width="1.6"/>
<line x1="108" y1="579" x2="100.28800121967947" y2="574.3604876536068" stroke="#666666" stroke-width="1.6"/>
<text x="72" y="690" font-size="10.5" fill="#555555" text-anchor="middle" transform="rotate(-90 72 690)">AUD (analog)</text>
<circle cx="1136" cy="627" r="9" fill="#ffffff" stroke="#6d28d9" stroke-width="2"/>
<text x="1136" y="631" font-size="11" fill="#6d28d9" font-weight="bold" text-anchor="middle">A</text>
<circle cx="1315" cy="680" r="9" fill="#ffffff" stroke="#6d28d9" stroke-width="2"/>
<text x="1315" y="684" font-size="11" fill="#6d28d9" font-weight="bold" text-anchor="middle">B</text>
<circle cx="1046" cy="746" r="9" fill="#ffffff" stroke="#6d28d9" stroke-width="2"/>
<text x="1046" y="750" font-size="11" fill="#6d28d9" font-weight="bold" text-anchor="middle">C</text>
<circle cx="80" cy="615" r="9" fill="#ffffff" stroke="#6d28d9" stroke-width="2"/>
<text x="80" y="619" font-size="11" fill="#6d28d9" font-weight="bold" text-anchor="middle">D</text>
<path d="M 1440 862 H 1465 V 1168 H 100 V 830" fill="none" stroke="#555555" stroke-width="1.4" stroke-dasharray="7 5"/>
<line x1="100" y1="830" x2="128" y2="818" stroke="#555555" stroke-width="1.4"/>
<line x1="100" y1="830" x2="112" y2="842" stroke="#555555" stroke-width="1.4"/>
<text x="780" y="1162" font-size="10.5" fill="#555555" text-anchor="middle">acoustic path: exciter drives the clamped H2C toolhead; the mic captures its response (closed loop)</text>
<rect x="310" y="1190" width="12" height="12" fill="#e8a13d" stroke="#000" stroke-width="0.6"/>
<text x="330" y="1200" font-size="12.5" fill="#222222">* ARS-assigned signal (provisional, gates G0-G5) -- pinout.md is the authority</text>
<text x="310" y="1222" font-size="12.5" fill="#222222">HIL analyzer taps, gate G3 (hil-measurements.md):</text>
<circle cx="640" cy="1218" r="9" fill="#ffffff" stroke="#6d28d9" stroke-width="2"/>
<text x="640" y="1222" font-size="11" fill="#6d28d9" font-weight="bold" text-anchor="middle">A</text>
<text x="656" y="1222" font-size="12.5" fill="#222222">PWM carrier, pre-RC</text>
<circle cx="850" cy="1218" r="9" fill="#ffffff" stroke="#6d28d9" stroke-width="2"/>
<text x="850" y="1222" font-size="11" fill="#6d28d9" font-weight="bold" text-anchor="middle">B</text>
<text x="866" y="1222" font-size="12.5" fill="#222222">filtered line, post-RC</text>
<circle cx="1070" cy="1218" r="9" fill="#ffffff" stroke="#6d28d9" stroke-width="2"/>
<text x="1070" y="1222" font-size="11" fill="#6d28d9" font-weight="bold" text-anchor="middle">C</text>
<text x="1086" y="1222" font-size="12.5" fill="#222222">I2C decode, SCL/SDA</text>
<circle cx="1280" cy="1218" r="9" fill="#ffffff" stroke="#6d28d9" stroke-width="2"/>
<text x="1280" y="1222" font-size="11" fill="#6d28d9" font-weight="bold" text-anchor="middle">D</text>
<text x="1296" y="1222" font-size="12.5" fill="#222222">mic line, into A0</text>
<text x="310" y="1244" font-size="11" fill="#555555">Arduino V3 header data: UM3417 Rev 3, Table 12.  A0-A5 route through the on-board 3.3V-to-1.8V adaptation amplifier; the 1.8V-domain ADC pin is shown.</text>
</svg>
